<svg xmlns="http://www.w3.org/2000/svg" viewBox="0 0 512 512" fill="none">
  <!-- Brain with infinity loop logo - Dark mode version (black) -->
  <g id="brain-infinity-logo">
    <!-- Brain top part -->
    <path d="M256 80c-33.1 0-61.4 21.1-72.1 50.6-3.8 10.4-5.9 21.7-5.9 33.4 0 26.5 10.7 50.5 28 67.9 8.8 8.9 19.3 15.9 31 20.4v-32.3c-17.7-8.8-30-27-30-48 0-29.8 24.2-54 54-54s54 24.2 54 54c0 21-12.3 39.2-30 48v32.3c11.7-4.5 22.2-11.5 31-20.4 17.3-17.4 28-41.4 28-67.9 0-11.7-2.1-23-5.9-33.4C317.4 101.1 289.1 80 256 80z" fill="currentColor" stroke="currentColor" stroke-width="12" stroke-linecap="round" stroke-linejoin="round"/>
    
    <!-- Brain details/folds -->
    <path d="M210 140c-5.5 0-10 4.5-10 10s4.5 10 10 10c8.8 0 16 7.2 16 16 0 5.5 4.5 10 10 10s10-4.5 10-10c0-19.9-16.1-36-36-36z" fill="currentColor"/>
    <path d="M286 120c0-5.5-4.5-10-10-10s-10 4.5-10 10v20c0 5.5 4.5 10 10 10s10-4.5 10-10v-20z" fill="currentColor"/>
    <path d="M306 160c-5.5 0-10 4.5-10 10 0 8.8-7.2 16-16 16-5.5 0-10 4.5-10 10s4.5 10 10 10c19.9 0 36-16.1 36-36 0-5.5-4.5-10-10-10z" fill="currentColor"/>
    
    <!-- Infinity loop bottom part -->
    <path d="M160 280c-44.2 0-80 35.8-80 80s35.8 80 80 80c20.4 0 39-7.7 53.1-20.3 7.1-6.3 17.9-6.3 25 0C252.1 432.3 270.6 440 291 440c44.2 0 80-35.8 80-80s-35.8-80-80-80c-20.4 0-39 7.7-53.1 20.3-7.1 6.3-17.9 6.3-25 0C198.9 287.7 180.4 280 160 280zm0 32c13.9 0 26.7 5.1 36.5 13.5l.2.2c16.4 14.6 41.2 14.6 57.6 0l.2-.2c9.8-8.4 22.6-13.5 36.5-13.5 30.9 0 56 25.1 56 56s-25.1 56-56 56c-13.9 0-26.7-5.1-36.5-13.5l-.2-.2c-16.4-14.6-41.2-14.6-57.6 0l-.2.2c-9.8 8.4-22.6 13.5-36.5 13.5-30.9 0-56-25.1-56-56s25.1-56 56-56z" fill="currentColor" stroke="currentColor" stroke-width="8" stroke-linecap="round" stroke-linejoin="round"/>
    
    <!-- Connection stem -->
    <path d="M256 220v40" stroke="currentColor" stroke-width="16" stroke-linecap="round"/>
  </g>
</svg>
